<svg width="512" height="512" xmlns="http://www.w3.org/2000/svg">
 <!--! Font Awesome Pro 6.0.0-beta1 by @fontawesome - https://fontawesome.com License - https://fontawesome.com/license (Commercial License) -->

 <g>
  <title>Layer 1</title>
  <path stroke="null" id="svg_1" d="m261.53841,2c-108.51362,0 -196.5,35.82 -196.5,80l0,352c0,44.18 87.98638,80 196.5,80s196.5,-35.82 196.5,-80l0,-352c0,-44.18 -87.98638,-80 -196.5,-80zm0,32c107.89955,0 165.00737,35.2 168.42857,48l0.01368,80.08c-44.84025,20.12 -104.57976,31.92 -168.44226,31.92c-63.8625,0 -123.60201,-11.8 -168.47243,-31.9l-0.00877,-79.53c3.48261,-13.37 59.79214,-48.57 168.48121,-48.57zm168.42857,161.5l0.02053,126.6c-44.84709,20.1 -104.5866,31.9 -168.4491,31.9c-63.87127,0 -123.60201,-11.84 -168.42857,-31.93l-0.03509,-126.67c47.12491,19.1 105.91701,30.6 167.67415,30.6c63.33616,0 122.11072,-11.5 169.21808,-30.5zm-168.42857,286.5c-107.89955,0 -165.00737,-35.2 -168.42857,-48l-0.01202,-78.55c47.11938,19.05 105.89394,30.55 167.65108,30.55c62.55542,0 121.32121,-11.48 168.5163,-30.56l0.01202,77.98c-2.73144,13.38 -59.83925,48.58 -167.7388,48.58z"/>
 </g>
</svg>