<svg xmlns="http://www.w3.org/2000/svg" xmlns:xlink="http://www.w3.org/1999/xlink" width="150" height="150" version="1.1" style="">
	<rect id="backgroundrect" width="100%" height="100%" x="0" y="0" fill="none" stroke="none"/>


	<g class="currentLayer" style="">
		<title>Layer 1</title>
		<g id="svg_1">
			<path d="M0.1250248,119 L17.1250248,119 L17.1250248,136 L0.1250248,136 L0.1250248,119 z" stroke="none" fill="#FF0000" fill-rule="nonzero" id="svg_2"/>
			<path d="M0.1250248,0 L17.1250248,0 L17.1250248,119 L0.1250248,119 L0.1250248,0 zM34.1250248,0 L51.1250248,0 L51.1250248,136 L34.1250248,136 zM68.1250248,0 L85.1250248,0 L85.1250248,136 L68.1250248,136 zM102.1250248,0 L119.1250248,0 L119.1250248,136 L102.1250248,136 zM136.1250248,55.25 L153.1250248,55.25 L153.1250248,80.75 L136.1250248,80.75 z" stroke="none" fill="#FFCC00" fill-rule="nonzero" id="svg_3"/>
		</g>
		<path fill="#0bd50b" fill-opacity="1" stroke="#222222" stroke-opacity="1" stroke-width="2" stroke-dasharray="none" stroke-linejoin="round" stroke-linecap="butt" stroke-dashoffset="" fill-rule="nonzero" opacity="1" marker-start="" marker-mid="" marker-end="" d="M102.55170726234263,126.09788336808029 C102.55170726234263,113.66694404276873 112.92589117201175,103.59788318926635 125.73352562839335,103.59788318926635 C138.541160084775,103.59788318926635 148.91534399444407,113.66694404276873 148.91534399444407,126.09788336808029 C148.91534399444407,138.52882269339187 138.541160084775,148.59788354689422 125.73352562839335,148.59788354689422 C112.92589117201175,148.59788354689422 102.55170726234263,138.52882269339187 102.55170726234263,126.09788336808029 z" id="svg_5" class=""/>
	</g>
</svg>