<?xml version="1.0" standalone="no"?><!DOCTYPE svg PUBLIC "-//W3C//DTD SVG 1.1//EN" "http://www.w3.org/Graphics/SVG/1.1/DTD/svg11.dtd"><svg t="1622267049223" class="icon" viewBox="0 0 1024 1024" version="1.1" xmlns="http://www.w3.org/2000/svg" p-id="2392" width="16" height="16" xmlns:xlink="http://www.w3.org/1999/xlink"><defs><style type="text/css"></style></defs><path d="M388.681 288.914l2.78 64.585-44.91 84.188-70.217 137.508-13.97 115.127 50.468 162.816 115.127 64.585h174.08l162.743-123.538 72.996-193.682-168.375-204.8-47.762-115.127z" fill="#ECEFF1" p-id="2393"></path><path d="M787.237 448.95c-44.91-64.584-81.408-103.862-101.01-185.27-19.676-81.408 5.631-58.953-11.265-129.097a220.453 220.453 0 0 0-36.425-81.408c-16.823-19.676-36.498-30.866-47.762-33.646-25.234-14.116-84.188-36.571-157.257 2.78-75.703 39.277-67.292 123.465-53.248 294.765 0 11.191-2.853 25.235-8.412 36.425-11.264 25.308-30.94 47.763-47.762 67.365-19.602 28.087-39.278 56.174-53.321 87.04-33.646 64.585-64.585 145.92-56.174 176.86C228.645 681.91 405.504 951.368 405.504 957c11.264-2.78 58.953-2.78 101.083-2.78 58.954-2.852 92.6-5.631 140.362 5.633 0-8.485-2.853-16.823-2.853-25.308 0-16.823 2.853-30.866 5.632-50.468 2.78-14.044 5.632-28.087 8.411-44.983-28.086 25.307-78.628 53.394-126.317 61.806-42.13 8.411-112.275-5.632-145.993-47.763 2.852 0 8.484 0 11.264-2.78 8.411-2.779 16.822-5.631 19.675-11.263 8.411-14.044 2.78-28.014-2.853-36.498-5.632-8.412-47.689-39.278-67.291-56.101-19.749-16.823-30.94-25.234-42.13-36.498l-22.455-22.455c-5.632-5.632-8.485-11.191-11.264-14.044-5.632-14.043-8.412-30.866-5.632-53.32 2.852-30.867 14.043-56.174 28.087-84.188a590.994 590.994 0 0 1 19.675-33.646s-47.762 117.833-22.455 154.332c0 0 2.78-36.499 14.044-72.997 8.411-25.234 22.455-61.733 39.277-81.408 16.823-19.675 58.954-92.599 61.733-137.509 0-19.675 2.78-39.35 2.78-53.394-11.191-11.19 185.27-39.278 196.534-8.411 2.78 11.264 42.13 112.274 64.585 165.668 11.191 25.235 25.235 47.69 33.646 75.776 8.412 30.867 14.044 72.997 14.044 115.054 0 8.411 0 22.455-2.78 36.571 5.559 0 115.054-117.979-14.043-216.21 0 0 78.555 36.498 81.408 109.495 2.78 58.953-22.455 106.642-28.087 115.054 2.78 0 58.953 25.307 61.732 25.307 11.264 0 33.646-8.411 33.646-8.411 2.926-8.485 11.264-30.94 11.264-39.351 19.676-64.512-28.087-168.375-72.996-232.96z" fill="#263238" p-id="2394"></path><path d="M394.24 207.58c0 20.04 7.022 38.546 18.286 48.566a25.893 25.893 0 0 0 36.498 0c11.264-10.02 18.286-28.525 18.286-48.567 0-20.114-7.022-38.619-18.286-48.64a25.893 25.893 0 0 0-36.498 0c-11.264 10.021-18.286 28.526-18.286 48.64z m115.127-2.78c0 22.967 9.07 44.325 23.844 55.881 14.775 11.484 32.915 11.484 47.763 0 14.775-11.556 23.844-32.914 23.844-55.954 0-35.62-21.357-64.585-47.762-64.585-26.331 0-47.69 28.964-47.69 64.585z" fill="#ECEFF1" p-id="2395"></path><path d="M435.931 247.223c10.752-1.317 17.555-17.408 15.214-35.84-2.267-18.432-12.946-32.33-23.698-30.94-10.752 1.317-17.554 17.408-15.287 35.84 2.34 18.506 13.02 32.33 23.771 31.013z m90.259-31.232c0 20.114 12.58 36.498 28.087 36.498 15.506 0 28.086-16.384 28.086-36.571 0-20.115-12.58-36.425-28.086-36.425-15.507 0-28.087 16.31-28.087 36.498z" fill="#212121" p-id="2396"></path><path d="M927.598 833.536c-11.191-5.632-30.867-14.043-47.69-39.35-8.41-14.044-5.631-53.322-19.675-70.218-8.411-11.19-19.602-5.559-22.455-5.559-25.234 5.632-84.187 44.91-123.465 0-5.632-5.632-14.043-14.043-28.087-14.043s-19.675 5.632-25.307 16.823c-5.559 11.264-5.559 19.748-5.559 47.762 0 22.455 0 47.689-2.853 67.364-5.558 47.69-14.043 75.776-14.043 103.863 0 30.867 8.485 50.469 19.675 58.953 8.412 8.412 22.455 14.044 53.395 14.044 30.793 0 50.468-11.264 70.144-30.866 14.043-14.044 25.234-19.676 64.512-47.763 30.866-19.602 78.628-44.91 87.04-53.32 5.632-5.633 14.043-8.412 14.043-25.235 0-14.044-11.264-19.676-19.675-22.455z m-564.224 8.411c-28.014-44.91-30.867-53.394-50.469-81.408-16.823-28.086-53.394-81.408-75.849-81.408-16.823 0-25.234 8.412-36.425 19.676-11.264 11.19-22.455 36.425-42.13 50.468-16.823 14.044-64.586 11.264-75.776 28.087-11.264 16.823 11.19 42.13 11.19 84.188 0 16.823-14.043 28.087-16.822 39.35-2.78 14.044-5.632 22.455 0 33.646 11.19 16.823 25.234 22.455 120.685 42.13 50.542 11.191 98.231 39.278 129.17 42.13 30.867 2.78 84.115 0 84.115-75.848 2.926-44.91-22.382-56.1-47.69-101.01z m53.394-508.123c-16.823-11.19-30.94-22.455-30.94-39.278s11.265-22.455 28.087-36.498c2.853-2.78 33.646-30.866 64.586-30.866 30.866 0 67.364 19.675 81.408 25.307 25.234 5.559 50.468 11.191 47.689 30.866-2.78 28.014-5.56 33.646-33.646 47.69-19.675 5.632-56.174 36.498-81.408 36.498-11.264 0-28.087 0-39.278-2.78-8.484-2.852-22.528-16.822-36.571-30.939z" fill="#FFC107" p-id="2397"></path><path d="M411.063 311.37a61.147 61.147 0 0 0 22.528 14.043c5.632 2.852 14.043 5.632 14.043 5.632h25.235c14.043 0 33.645-5.632 53.394-16.823 19.602-8.412 22.382-14.044 36.425-19.676 14.043-8.411 28.087-16.823 22.455-19.602-5.632-2.853-11.191 0-30.866 11.19-16.823 11.265-30.867 16.824-47.69 25.235-8.411 2.853-19.675 8.485-28.086 8.485h-25.235c-8.484 0-14.043-2.853-22.528-5.632-5.559-2.853-8.411-5.632-11.19-5.632-5.633-2.78-16.823-14.044-22.455-16.823 0 0-5.632 0-2.78 2.78l16.823 16.822z m84.26-61.733c2.853 5.632 8.412 5.632 11.264 8.411 2.78 2.853 5.56 2.853 5.56 2.853 2.852-2.853 0-8.412-2.78-8.412 0-5.632-14.044-5.632-14.044-2.852z m-44.91 5.632c0 2.779 5.633 5.632 5.633 2.779 2.78-2.78 5.632-5.559 8.411-5.559 5.632-2.852 2.78-5.632-5.632-5.632-5.559 2.78-5.559 5.632-8.411 8.412z" fill="#634703" p-id="2398"></path><path d="M722.651 752.128v8.411c5.632 11.191 19.749 14.044 30.94 14.044 16.823 0 33.646-11.264 42.13-22.455 0-2.853 2.78-5.632 5.559-8.411 5.632-8.485 8.411-14.044 11.264-16.823 0 0-2.853-2.926-2.853-5.632-2.779-5.632-11.19-11.264-22.454-14.044a123.538 123.538 0 0 0-28.014-5.632c-25.308-2.78-39.351 5.632-47.762 14.044 0 0 2.852 0 2.852 2.78a25.454 25.454 0 0 1 8.412 19.675c2.779 5.632 0 8.411 0 14.043z" fill="#455A64" p-id="2399"></path></svg>