<svg xmlns="http://www.w3.org/2000/svg" xmlns:xlink="http://www.w3.org/1999/xlink" width="67.76399993896484" height="74.76399993896484" fill="#fff" fill-rule="evenodd" stroke="#000" stroke-linecap="round" stroke-linejoin="round" style=""><rect id="backgroundrect" width="100%" height="100%" x="0" y="0" fill="none" stroke="none"/><defs><linearGradient id="A" x1="57.66%" x2="57.66%" y1="2.08%" y2="94.46%"><stop offset="0%" stop-color="#97d9f6"/><stop offset="92.024%" stop-color="#0f80cc"/></linearGradient></defs><symbol id="B" overflow="visible"><g id="svg_1" fill-rule="nonzero" stroke="none"><path id="svg_2" fill="#0f80cc" d="M45.039 2.927H4.882C2.186 2.927 0 5.113 0 7.809v44.287c0 2.696 2.186 4.882 4.882 4.882h26.362c-.293-13.161 4.198-38.703 13.708-54.09z"/><path id="svg_3" fill="url(#A)" d="M43.477 4.265H4.882a3.47 3.47 0 0 0-3.466 3.466v41.056c8.768-3.368 21.919-6.268 31.019-6.132a282.46 282.46 0 0 1 11.15-38.39z"/><path id="svg_4" fill="#003b57" d="M54.412 1.385C51.658-1.056 48.329-.08 45.039 2.83l-1.562 1.425c-5.624 5.858-10.74 17.008-12.458 25.454a23.23 23.23 0 0 1 1.445 4.159l.215.976.215.996s-.049-.195-.254-.781l-.137-.39c-.028-.072-.057-.144-.088-.215-.371-.849-1.367-2.656-1.826-3.437a85.8 85.8 0 0 0-1.006 3.134c1.289 2.363 2.07 6.405 2.07 6.405s-.068-.264-.39-1.172c-.293-.81-1.718-3.32-1.953-3.905-.586 2.148-.81 3.593-.605 3.944.391.684.781 1.953 1.123 3.163a73.42 73.42 0 0 1 1.289 6.502l.049.605c-.101 2.441-.052 4.887.146 7.323.254 3.056.732 5.682 1.338 7.088l.41-.225c-.976-2.773-1.25-6.395-1.094-10.584.244-6.395 1.709-14.108 4.433-22.144C41.016 18.92 47.382 9.176 53.221 4.528 47.9 9.332 40.704 24.876 38.556 30.626c-2.412 6.444-4.12 12.497-5.155 18.287 1.777-5.428 7.518-7.772 7.518-7.772s2.929-3.476 6.112-8.445l-6.298 1.679-2.031.898s5.175-3.154 9.637-4.589c6.122-9.637 12.693-23.432 6.073-29.31"/></g></symbol><g class="currentLayer" style=""><title>Layer 1</title><use id="svg_5" x="4.881999969482422" y="4.881999969482422" xlink:href="#B"/><path id="svg_11" fill="#0bd50b" fill-opacity="1" fill-rule="nonzero" stroke="#222" stroke-dasharray="none" stroke-linecap="butt" stroke-linejoin="round" stroke-opacity="1" stroke-width="2" d="M42.227640887101444,61.72764224476286 C42.227640887101444,54.821564954325375 47.89614934332897,49.227642349071004 54.894307931264194,49.227642349071004 C61.89246651919942,49.227642349071004 67.56097497542694,54.821564954325375 67.56097497542694,61.72764224476286 C67.56097497542694,68.63371953520036 61.89246651919942,74.22764214045472 54.894307931264194,74.22764214045472 C47.89614934332897,74.22764214045472 42.227640887101444,68.63371953520036 42.227640887101444,61.72764224476286 z" opacity="1" class=""/></g></svg>