<?xml version="1.0" standalone="no"?><!DOCTYPE svg PUBLIC "-//W3C//DTD SVG 1.1//EN" "http://www.w3.org/Graphics/SVG/1.1/DTD/svg11.dtd"><svg t="1649427364577" class="icon" viewBox="0 0 1357 1024" version="1.1" xmlns="http://www.w3.org/2000/svg" p-id="1251" xmlns:xlink="http://www.w3.org/1999/xlink" width="265.0390625" height="200"><defs><style type="text/css"></style></defs><path d="M1296.749468 244.39132c26.802989-27.289989 40.869983-61.350975 42.479983-101.796958 1.322999-40.769983-11.093995-74.833969-38.255985-102.476958-26.479989-27.286989-59.479976-40.771983-98.085959-40.092984-38.930984 1-71.92997 14.837994-98.41396 42.448983L473.329806 689.969137 256.184895 469.534227c-26.479989-27.642989-59.510976-41.801983-98.41096-42.479982-38.576984-1-71.609971 12.483995-98.123959 40.123983-27.124989 27.642989-40.541983 59.996975-41.510983 97.41496-1 37.736985 12.417995 70.440971 39.256983 97.73296l310.941873 321.555868c26.838989 27.287989 61.832975 40.767983 104.991957 40.093984 43.189982-1.003 78.476968-14.808994 104.959957-42.446983l-8.482997 9.094997L1296.749468 244.39032z" p-id="1252" fill="#25AD6B"></path></svg>